<svg xmlns="http://www.w3.org/2000/svg" viewBox="0 0 52.49 52.45"><defs><style>.cls-1{fill:#fff;}</style></defs><g id="Layer_2" data-name="Layer 2"><g id="Layer_1-2" data-name="Layer 1"><path class="cls-1" d="M15,24.59a35.14,35.14,0,0,0,9.63-9.66,10.92,10.92,0,0,1-2.07-9.38A9.9,9.9,0,0,1,26.22,0a9.79,9.79,0,0,1,4,7,10.71,10.71,0,0,1-2.23,7.74c.74,2.28,6.81,8.47,9.59,9.8a10.67,10.67,0,0,1,9.09-2.12,9.88,9.88,0,0,1,5.87,3.8,10.72,10.72,0,0,1-15,1.43A39.87,39.87,0,0,0,28,37a1.55,1.55,0,0,0,.4,1.25,10.23,10.23,0,0,1,1.79,6.55,10.69,10.69,0,0,1-3.94,7.64,10.35,10.35,0,0,1-4-7.27,10.7,10.7,0,0,1,2.41-7.87A42,42,0,0,0,15,27.68a10.71,10.71,0,0,1-8.79,2.24A10.2,10.2,0,0,1,0,26.24a10.07,10.07,0,0,1,7.18-4C10.12,21.89,12.61,22.93,15,24.59ZM35.5,26.14A45,45,0,0,1,26.21,17,43.47,43.47,0,0,1,17,26.19a44.19,44.19,0,0,1,9.24,9.13A44.87,44.87,0,0,1,35.5,26.14ZM26.15,12.68c2-1.31,2.49-6.72.05-9.12A7.46,7.46,0,0,0,26.15,12.68Zm.12,36c2.17-2.19,2-7.47-.12-9.18C23.93,42.44,24.29,46.67,26.27,48.71Zm22.52-22.6c-2.42-2.08-7.15-2-9.09.11C42.32,28.34,46.74,28.29,48.79,26.11Zm-36,.08c-2.1-2.16-7.25-2.13-9,0A7.26,7.26,0,0,0,12.78,26.19Z"/><path class="cls-1" d="M15,32.39l4.87,4.86c.73-.38,1.18-1.22,1.92-1.7a3.61,3.61,0,0,1,1.4,1.58L20,40.49l-8.18-8.21A21.6,21.6,0,0,1,15,29.15a4.93,4.93,0,0,1,1.83,1.33Z"/><path class="cls-1" d="M32.37,40.73l-2.49-2.65c-.23-.23-.45-.47-.72-.77.44-.62.65-1.37,1.46-1.62.87.29,1.23,1.18,2,1.56a1.59,1.59,0,0,0,.68-.51l4.25-4.24-1.85-2c.43-.7,1.11-.93,1.71-1.36,1.45.83,2.24,2.28,3.41,3.16Z"/><path class="cls-1" d="M19.91,11.7l3.4,3.4c-.2.56-.85.94-1.2,1.56-.93-.22-1.24-1.16-2.09-1.57-1.18.28-1.6,1.53-2.47,2.27a14.28,14.28,0,0,0-2.34,2.44c.37.83,1.21,1.22,1.64,2-.34.65-1.07.85-1.62,1.47A40.93,40.93,0,0,1,11.82,20,76.06,76.06,0,0,1,19.91,11.7Z"/><path class="cls-1" d="M37.34,23.32,35.65,21.9C36,21,37,20.59,37.47,19.62L32.74,15c-1,.34-1.36,1.24-2.2,1.66A6.71,6.71,0,0,1,29.1,15a46.23,46.23,0,0,1,3.23-3.32,74.64,74.64,0,0,1,8.38,8.16A40.32,40.32,0,0,1,37.34,23.32Z"/><path class="cls-1" d="M23.27,25.72a5.17,5.17,0,0,1,0-2.38,6.11,6.11,0,0,1,2.52,0,4.59,4.59,0,0,1,.09,2.27A5.3,5.3,0,0,1,23.27,25.72Z"/><path class="cls-1" d="M29.27,25.66a6.39,6.39,0,0,1-2.61,0,5.1,5.1,0,0,1,0-2.3,5.28,5.28,0,0,1,2.5-.09A4.33,4.33,0,0,1,29.27,25.66Z"/><path class="cls-1" d="M25.94,29.05a7,7,0,0,1-2.58.05,3.87,3.87,0,0,1-.11-2.36,6,6,0,0,1,2.54,0A6.44,6.44,0,0,1,25.94,29.05Z"/><path class="cls-1" d="M29.27,29.05a6.38,6.38,0,0,1-2.61,0,4.92,4.92,0,0,1,0-2.29,5.42,5.42,0,0,1,2.5-.08A4.31,4.31,0,0,1,29.27,29.05Z"/></g></g></svg>